<svg aria-roledescription="er" role="graphics-document document" viewBox="0 0 2655.126953125 465.015625" height="465.015625" xmlns="http://www.w3.org/2000/svg" width="2655.126953125" id="tmpMermaidElement1011"><style>svg {background: white;}#tmpMermaidElement1011{font-family:"trebuchet ms",verdana,arial,sans-serif;font-size:16px;fill:#333;}#tmpMermaidElement1011 .error-icon{fill:#552222;}#tmpMermaidElement1011 .error-text{fill:#552222;stroke:#552222;}#tmpMermaidElement1011 .edge-thickness-normal{stroke-width:2px;}#tmpMermaidElement1011 .edge-thickness-thick{stroke-width:3.5px;}#tmpMermaidElement1011 .edge-pattern-solid{stroke-dasharray:0;}#tmpMermaidElement1011 .edge-pattern-dashed{stroke-dasharray:3;}#tmpMermaidElement1011 .edge-pattern-dotted{stroke-dasharray:2;}#tmpMermaidElement1011 .marker{fill:#333333;stroke:#333333;}#tmpMermaidElement1011 .marker.cross{stroke:#333333;}#tmpMermaidElement1011 svg{font-family:"trebuchet ms",verdana,arial,sans-serif;font-size:16px;}#tmpMermaidElement1011 .entityBox{fill:#ECECFF;stroke:#9370DB;}#tmpMermaidElement1011 .attributeBoxOdd{fill:#ffffff;stroke:#9370DB;}#tmpMermaidElement1011 .attributeBoxEven{fill:#f2f2f2;stroke:#9370DB;}#tmpMermaidElement1011 .relationshipLabelBox{fill:hsl(80, 100%, 96.2745098039%);opacity:0.7;background-color:hsl(80, 100%, 96.2745098039%);}#tmpMermaidElement1011 .relationshipLabelBox rect{opacity:0.5;}#tmpMermaidElement1011 .relationshipLine{stroke:#333333;}#tmpMermaidElement1011 .entityTitleText{text-anchor:middle;font-size:18px;fill:#333;}#tmpMermaidElement1011 #MD_PARENT_START{fill:#f5f5f5!important;stroke:#333333!important;stroke-width:1;}#tmpMermaidElement1011 #MD_PARENT_END{fill:#f5f5f5!important;stroke:#333333!important;stroke-width:1;}#tmpMermaidElement1011 :root{--mermaid-font-family:"trebuchet ms",verdana,arial,sans-serif;}</style><g></g><defs><marker orient="auto" markerHeight="240" markerWidth="190" refY="7" refX="0" id="MD_PARENT_START"><path d="M 18,7 L9,13 L1,7 L9,1 Z"></path></marker></defs><defs><marker orient="auto" markerHeight="28" markerWidth="20" refY="7" refX="19" id="MD_PARENT_END"><path d="M 18,7 L9,13 L1,7 L9,1 Z"></path></marker></defs><defs><marker orient="auto" markerHeight="18" markerWidth="18" refY="9" refX="0" id="ONLY_ONE_START"><path d="M9,0 L9,18 M15,0 L15,18" fill="none" stroke="gray"></path></marker></defs><defs><marker orient="auto" markerHeight="18" markerWidth="18" refY="9" refX="18" id="ONLY_ONE_END"><path d="M3,0 L3,18 M9,0 L9,18" fill="none" stroke="gray"></path></marker></defs><defs><marker orient="auto" markerHeight="18" markerWidth="30" refY="9" refX="0" id="ZERO_OR_ONE_START"><circle r="6" cy="9" cx="21" fill="white" stroke="gray"></circle><path d="M9,0 L9,18" fill="none" stroke="gray"></path></marker></defs><defs><marker orient="auto" markerHeight="18" markerWidth="30" refY="9" refX="30" id="ZERO_OR_ONE_END"><circle r="6" cy="9" cx="9" fill="white" stroke="gray"></circle><path d="M21,0 L21,18" fill="none" stroke="gray"></path></marker></defs><defs><marker orient="auto" markerHeight="36" markerWidth="45" refY="18" refX="18" id="ONE_OR_MORE_START"><path d="M0,18 Q 18,0 36,18 Q 18,36 0,18 M42,9 L42,27" fill="none" stroke="gray"></path></marker></defs><defs><marker orient="auto" markerHeight="36" markerWidth="45" refY="18" refX="27" id="ONE_OR_MORE_END"><path d="M3,9 L3,27 M9,18 Q27,0 45,18 Q27,36 9,18" fill="none" stroke="gray"></path></marker></defs><defs><marker orient="auto" markerHeight="36" markerWidth="57" refY="18" refX="18" id="ZERO_OR_MORE_START"><circle r="6" cy="18" cx="48" fill="white" stroke="gray"></circle><path d="M0,18 Q18,0 36,18 Q18,36 0,18" fill="none" stroke="gray"></path></marker></defs><defs><marker orient="auto" markerHeight="36" markerWidth="57" refY="18" refX="39" id="ZERO_OR_MORE_END"><circle r="6" cy="18" cx="9" fill="white" stroke="gray"></circle><path d="M21,18 Q39,0 57,18 Q39,36 21,18" fill="none" stroke="gray"></path></marker></defs><path style="stroke: gray; fill: none;" marker-start="url(#ONLY_ONE_START)" marker-end="url(#ZERO_OR_MORE_END)" d="M1829,68.032L1744.476,80.862C1659.953,93.693,1490.907,119.354,1406.384,142.517C1321.861,165.68,1321.861,186.344,1321.861,196.676L1321.861,207.008" class="er relationshipLine"></path><path style="stroke: gray; fill: none;" marker-start="url(#ONLY_ONE_START)" marker-end="url(#ZERO_OR_MORE_END)" d="M1829,75.1L1783.081,86.753C1737.162,98.406,1645.324,121.711,1599.405,141.696C1553.486,161.682,1553.486,178.349,1553.486,186.682L1553.486,195.016" class="er relationshipLine"></path><path style="stroke: gray; fill: none;" marker-start="url(#ONLY_ONE_START)" marker-end="url(#ZERO_OR_MORE_END)" d="M1852.594,95.016L1842.433,103.349C1832.273,111.682,1811.951,128.349,1801.791,145.016C1791.63,161.682,1791.63,178.349,1791.63,186.682L1791.63,195.016" class="er relationshipLine"></path><path style="stroke: gray; fill: none;" marker-start="url(#ONLY_ONE_START)" marker-end="url(#ZERO_OR_MORE_END)" d="M1944.059,95.016L1954.22,103.349C1964.381,111.682,1984.702,128.349,1994.863,145.016C2005.023,161.682,2005.023,178.349,2005.023,186.682L2005.023,195.016" class="er relationshipLine"></path><path style="stroke: gray; fill: none;" marker-start="url(#ONLY_ONE_START)" marker-end="url(#ZERO_OR_MORE_END)" d="M1967.654,77.16L2007.55,88.469C2047.446,99.778,2127.239,122.397,2167.135,142.04C2207.031,161.682,2207.031,178.349,2207.031,186.682L2207.031,195.016" class="er relationshipLine"></path><path style="stroke: gray; fill: none;" marker-start="url(#ONLY_ONE_START)" marker-end="url(#ZERO_OR_MORE_END)" d="M1967.654,69.25L2042.205,81.878C2116.757,94.506,2265.86,119.761,2340.411,140.721C2414.963,161.682,2414.963,178.349,2414.963,186.682L2414.963,195.016" class="er relationshipLine"></path><path style="stroke: gray; fill: none;" marker-start="url(#ONLY_ONE_START)" marker-end="url(#ZERO_OR_MORE_END)" d="M1264.986,236.491L1065.822,250.412C866.658,264.333,468.329,292.174,269.164,314.428C70,336.682,70,353.349,70,361.682L70,370.016" class="er relationshipLine"></path><path style="stroke: gray; fill: none;" marker-start="url(#ONLY_ONE_START)" marker-end="url(#ZERO_OR_MORE_END)" d="M1264.986,237.292L1100.804,251.079C936.621,264.866,608.256,292.441,444.073,314.562C279.891,336.682,279.891,353.349,279.891,361.682L279.891,370.016" class="er relationshipLine"></path><path style="stroke: gray; fill: none;" marker-start="url(#ONLY_ONE_START)" marker-end="url(#ZERO_OR_MORE_END)" d="M1264.986,238.562L1137.296,252.138C1009.605,265.713,754.224,292.865,626.533,314.773C498.843,336.682,498.843,353.349,498.843,361.682L498.843,370.016" class="er relationshipLine"></path><path style="stroke: gray; fill: none;" marker-start="url(#ONLY_ONE_START)" marker-end="url(#ZERO_OR_MORE_END)" d="M1264.986,240.625L1172.189,253.857C1079.391,267.089,893.796,293.552,800.999,315.117C708.201,336.682,708.201,353.349,708.201,361.682L708.201,370.016" class="er relationshipLine"></path><path style="stroke: gray; fill: none;" marker-start="url(#ONLY_ONE_START)" marker-end="url(#ZERO_OR_MORE_END)" d="M1264.986,244.555L1205.572,257.132C1146.157,269.708,1027.327,294.862,967.913,315.772C908.498,336.682,908.498,353.349,908.498,361.682L908.498,370.016" class="er relationshipLine"></path><path style="stroke: gray; fill: none;" marker-start="url(#ONLY_ONE_START)" marker-end="url(#ZERO_OR_MORE_END)" d="M1264.986,256.472L1239.843,267.063C1214.701,277.653,1164.415,298.834,1139.272,317.758C1114.129,336.682,1114.129,353.349,1114.129,361.682L1114.129,370.016" class="er relationshipLine"></path><path style="stroke: gray; fill: none;" marker-start="url(#ONLY_ONE_START)" marker-end="url(#ZERO_OR_MORE_END)" d="M1321.861,258.023L1321.861,268.355C1321.861,278.688,1321.861,299.352,1321.861,318.017C1321.861,336.682,1321.861,353.349,1321.861,361.682L1321.861,370.016" class="er relationshipLine"></path><path style="stroke: gray; fill: none;" marker-start="url(#ONLY_ONE_START)" marker-end="url(#ZERO_OR_MORE_END)" d="M1378.736,257.14L1402.941,267.619C1427.145,278.098,1475.554,299.057,1499.758,317.87C1523.963,336.682,1523.963,353.349,1523.963,361.682L1523.963,370.016" class="er relationshipLine"></path><path style="stroke: gray; fill: none;" marker-start="url(#ONLY_ONE_START)" marker-end="url(#ZERO_OR_MORE_END)" d="M1378.736,244.712L1437.264,257.263C1495.791,269.813,1612.846,294.914,1671.373,315.798C1729.9,336.682,1729.9,353.349,1729.9,361.682L1729.9,370.016" class="er relationshipLine"></path><path style="stroke: gray; fill: none;" marker-start="url(#ONLY_ONE_START)" marker-end="url(#ZERO_OR_MORE_END)" d="M1378.736,240.538L1472.648,253.784C1566.559,267.03,1754.382,293.523,1848.293,315.103C1942.204,336.682,1942.204,353.349,1942.204,361.682L1942.204,370.016" class="er relationshipLine"></path><path style="stroke: gray; fill: none;" marker-start="url(#ONLY_ONE_START)" marker-end="url(#ZERO_OR_MORE_END)" d="M1378.736,238.455L1508.914,252.048C1639.092,265.642,1899.447,292.829,2029.625,314.755C2159.803,336.682,2159.803,353.349,2159.803,361.682L2159.803,370.016" class="er relationshipLine"></path><path style="stroke: gray; fill: none;" marker-start="url(#ONLY_ONE_START)" marker-end="url(#ZERO_OR_MORE_END)" d="M1378.736,237.227L1545.294,251.025C1711.851,264.823,2044.966,292.42,2211.524,314.551C2378.081,336.682,2378.081,353.349,2378.081,361.682L2378.081,370.016" class="er relationshipLine"></path><path style="stroke: gray; fill: none;" marker-start="url(#ONLY_ONE_START)" marker-end="url(#ZERO_OR_MORE_END)" d="M1378.736,236.455L1579.801,250.382C1780.867,264.309,2182.997,292.162,2384.062,314.422C2585.127,336.682,2585.127,353.349,2585.127,361.682L2585.127,370.016" class="er relationshipLine"></path><g transform="translate(1828.99951171875,20 )" id="entity-CustomerFeedback-5c794a10-d9a6-5570-acb1-8f1add355d45"><rect height="75.015625" width="138.654296875" y="0" x="0" class="er entityBox"></rect><text style="dominant-baseline: middle; text-anchor: middle; font-size: 12px;" transform="translate(69.3271484375,13.5078125)" y="0" x="0" id="text-entity-CustomerFeedback-5c794a10-d9a6-5570-acb1-8f1add355d45" class="er entityLabel">CustomerFeedback</text><rect height="24" width="33.829925537109375" y="27.015625" x="0" class="er attributeBoxOdd"></rect><text style="dominant-baseline: middle; font-size: 10.2px;" transform="translate(5,39.015625)" y="0" x="0" id="text-entity-CustomerFeedback-5c794a10-d9a6-5570-acb1-8f1add355d45-attr-1-type" class="er entityLabel">int</text><rect height="24" width="104.82437133789062" y="27.015625" x="33.829925537109375" class="er attributeBoxOdd"></rect><text style="dominant-baseline: middle; font-size: 10.2px;" transform="translate(38.829925537109375,39.015625)" y="0" x="0" id="text-entity-CustomerFeedback-5c794a10-d9a6-5570-acb1-8f1add355d45-attr-1-name" class="er entityLabel">hasAge</text><rect height="24" width="33.829925537109375" y="51.015625" x="0" class="er attributeBoxEven"></rect><text style="dominant-baseline: middle; font-size: 10.2px;" transform="translate(5,63.015625)" y="0" x="0" id="text-entity-CustomerFeedback-5c794a10-d9a6-5570-acb1-8f1add355d45-attr-2-type" class="er entityLabel">int</text><rect height="24" width="104.82437133789062" y="51.015625" x="33.829925537109375" class="er attributeBoxEven"></rect><text style="dominant-baseline: middle; font-size: 10.2px;" transform="translate(38.829925537109375,63.015625)" y="0" x="0" id="text-entity-CustomerFeedback-5c794a10-d9a6-5570-acb1-8f1add355d45-attr-2-name" class="er entityLabel">hasFlightDistance</text></g><g transform="translate(1264.986328125,207.0078125 )" id="entity-EvaluationItem-e4512a8e-10b2-5200-8b49-4522a2482309"><rect height="51.015625" width="113.75" y="0" x="0" class="er entityBox"></rect><text style="dominant-baseline: middle; text-anchor: middle; font-size: 12px;" transform="translate(56.875,13.5078125)" y="0" x="0" id="text-entity-EvaluationItem-e4512a8e-10b2-5200-8b49-4522a2482309" class="er entityLabel">EvaluationItem</text><rect height="24" width="39.703338623046875" y="27.015625" x="0" class="er attributeBoxOdd"></rect><text style="dominant-baseline: middle; font-size: 10.2px;" transform="translate(5,39.015625)" y="0" x="0" id="text-entity-EvaluationItem-e4512a8e-10b2-5200-8b49-4522a2482309-attr-1-type" class="er entityLabel">int</text><rect height="24" width="74.04666137695312" y="27.015625" x="39.703338623046875" class="er attributeBoxOdd"></rect><text style="dominant-baseline: middle; font-size: 10.2px;" transform="translate(44.703338623046875,39.015625)" y="0" x="0" id="text-entity-EvaluationItem-e4512a8e-10b2-5200-8b49-4522a2482309-attr-1-name" class="er entityLabel">hasRating</text></g><g transform="translate(1478.736328125,195.015625 )" id="entity-CustomerSatisfaction-8a65f103-852d-5f73-a4ad-e6891d826112"><rect height="75" width="149.5" y="0" x="0" class="er entityBox"></rect><text style="dominant-baseline: middle; text-anchor: middle; font-size: 12px;" transform="translate(74.75,37.5)" y="0" x="0" id="text-entity-CustomerSatisfaction-8a65f103-852d-5f73-a4ad-e6891d826112" class="er entityLabel">CustomerSatisfaction</text></g><g transform="translate(1728.236328125,195.015625 )" id="entity-CustomerGender-dcdf366f-b6a3-5a27-b9af-d5c41271725b"><rect height="75" width="126.787109375" y="0" x="0" class="er entityBox"></rect><text style="dominant-baseline: middle; text-anchor: middle; font-size: 12px;" transform="translate(63.3935546875,37.5)" y="0" x="0" id="text-entity-CustomerGender-dcdf366f-b6a3-5a27-b9af-d5c41271725b" class="er entityLabel">CustomerGender</text></g><g transform="translate(1955.0234375,195.015625 )" id="entity-FlightClass-8ac9df22-8b4a-5908-b345-9318e2ce0b87"><rect height="75" width="100" y="0" x="0" class="er entityBox"></rect><text style="dominant-baseline: middle; text-anchor: middle; font-size: 12px;" transform="translate(50,37.5)" y="0" x="0" id="text-entity-FlightClass-8ac9df22-8b4a-5908-b345-9318e2ce0b87" class="er entityLabel">FlightClass</text></g><g transform="translate(2155.0234375,195.015625 )" id="entity-TypeOfTravel-7d310c3e-0e5a-5ae6-9e44-d5ecb7bf2763"><rect height="75" width="104.015625" y="0" x="0" class="er entityBox"></rect><text style="dominant-baseline: middle; text-anchor: middle; font-size: 12px;" transform="translate(52.0078125,37.5)" y="0" x="0" id="text-entity-TypeOfTravel-7d310c3e-0e5a-5ae6-9e44-d5ecb7bf2763" class="er entityLabel">TypeOfTravel</text></g><g transform="translate(2359.0390625,195.015625 )" id="entity-CustomerType-25ed683a-058f-5610-8068-440d4af78b3f"><rect height="75" width="111.84765625" y="0" x="0" class="er entityBox"></rect><text style="dominant-baseline: middle; text-anchor: middle; font-size: 12px;" transform="translate(55.923828125,37.5)" y="0" x="0" id="text-entity-CustomerType-25ed683a-058f-5610-8068-440d4af78b3f" class="er entityLabel">CustomerType</text></g><g transform="translate(20,370.015625 )" id="entity-ArrivalDelay-a2bc8143-b205-581b-8f0a-87b76d1438dc"><rect height="75" width="100" y="0" x="0" class="er entityBox"></rect><text style="dominant-baseline: middle; text-anchor: middle; font-size: 12px;" transform="translate(50,37.5)" y="0" x="0" id="text-entity-ArrivalDelay-a2bc8143-b205-581b-8f0a-87b76d1438dc" class="er entityLabel">ArrivalDelay</text></g><g transform="translate(220,370.015625 )" id="entity-DepartureDelay-18a9bb4c-4d65-5e76-ac84-718cf85a45e2"><rect height="75" width="119.78125" y="0" x="0" class="er entityBox"></rect><text style="dominant-baseline: middle; text-anchor: middle; font-size: 12px;" transform="translate(59.890625,37.5)" y="0" x="0" id="text-entity-DepartureDelay-18a9bb4c-4d65-5e76-ac84-718cf85a45e2" class="er entityLabel">DepartureDelay</text></g><g transform="translate(439.78125,370.015625 )" id="entity-OnlineBoarding-c71090da-e405-5b9d-b0d4-a09f6b470e97"><rect height="75" width="118.123046875" y="0" x="0" class="er entityBox"></rect><text style="dominant-baseline: middle; text-anchor: middle; font-size: 12px;" transform="translate(59.0615234375,37.5)" y="0" x="0" id="text-entity-OnlineBoarding-c71090da-e405-5b9d-b0d4-a09f6b470e97" class="er entityLabel">OnlineBoarding</text></g><g transform="translate(657.904296875,370.015625 )" id="entity-SeatComfort-0298e526-1f72-514f-91db-be9c8c160c0f"><rect height="75" width="100.59375" y="0" x="0" class="er entityBox"></rect><text style="dominant-baseline: middle; text-anchor: middle; font-size: 12px;" transform="translate(50.296875,37.5)" y="0" x="0" id="text-entity-SeatComfort-0298e526-1f72-514f-91db-be9c8c160c0f" class="er entityLabel">SeatComfort</text></g><g transform="translate(858.498046875,370.015625 )" id="entity-Departure-fd572a4c-aa35-52bf-bcf5-7916e27f04c0"><rect height="75" width="100" y="0" x="0" class="er entityBox"></rect><text style="dominant-baseline: middle; text-anchor: middle; font-size: 12px;" transform="translate(50,37.5)" y="0" x="0" id="text-entity-Departure-fd572a4c-aa35-52bf-bcf5-7916e27f04c0" class="er entityLabel">Departure</text></g><g transform="translate(1058.498046875,370.015625 )" id="entity-FoodAndDrink-155b8793-44b8-5b87-b875-41206bb38ee1"><rect height="75" width="111.26171875" y="0" x="0" class="er entityBox"></rect><text style="dominant-baseline: middle; text-anchor: middle; font-size: 12px;" transform="translate(55.630859375,37.5)" y="0" x="0" id="text-entity-FoodAndDrink-155b8793-44b8-5b87-b875-41206bb38ee1" class="er entityLabel">FoodAndDrink</text></g><g transform="translate(1269.759765625,370.015625 )" id="entity-GateLocation-77f0b1bc-baae-590d-bfad-677232b0e638"><rect height="75" width="104.203125" y="0" x="0" class="er entityBox"></rect><text style="dominant-baseline: middle; text-anchor: middle; font-size: 12px;" transform="translate(52.1015625,37.5)" y="0" x="0" id="text-entity-GateLocation-77f0b1bc-baae-590d-bfad-677232b0e638" class="er entityLabel">GateLocation</text></g><g transform="translate(1473.962890625,370.015625 )" id="entity-Wifi-896ef007-e12e-567d-a43a-04630224eca1"><rect height="75" width="100" y="0" x="0" class="er entityBox"></rect><text style="dominant-baseline: middle; text-anchor: middle; font-size: 12px;" transform="translate(50,37.5)" y="0" x="0" id="text-entity-Wifi-896ef007-e12e-567d-a43a-04630224eca1" class="er entityLabel">Wifi</text></g><g transform="translate(1673.962890625,370.015625 )" id="entity-OnlineSupport-88183114-56a1-5b8a-8d27-7350ad8726e1"><rect height="75" width="111.875" y="0" x="0" class="er entityBox"></rect><text style="dominant-baseline: middle; text-anchor: middle; font-size: 12px;" transform="translate(55.9375,37.5)" y="0" x="0" id="text-entity-OnlineSupport-88183114-56a1-5b8a-8d27-7350ad8726e1" class="er entityLabel">OnlineSupport</text></g><g transform="translate(1885.837890625,370.015625 )" id="entity-OnlineBooking-b6d901a6-90d3-591e-8a05-6108fa32b732"><rect height="75" width="112.732421875" y="0" x="0" class="er entityBox"></rect><text style="dominant-baseline: middle; text-anchor: middle; font-size: 12px;" transform="translate(56.3662109375,37.5)" y="0" x="0" id="text-entity-OnlineBooking-b6d901a6-90d3-591e-8a05-6108fa32b732" class="er entityLabel">OnlineBooking</text></g><g transform="translate(2098.5703125,370.015625 )" id="entity-LegRoomService-cbb70900-79f8-5964-bf83-c5233e59b3ca"><rect height="75" width="122.46484375" y="0" x="0" class="er entityBox"></rect><text style="dominant-baseline: middle; text-anchor: middle; font-size: 12px;" transform="translate(61.232421875,37.5)" y="0" x="0" id="text-entity-LegRoomService-cbb70900-79f8-5964-bf83-c5233e59b3ca" class="er entityLabel">LegRoomService</text></g><g transform="translate(2321.03515625,370.015625 )" id="entity-CheckinService-dfb110f2-c6ac-5bc0-aa33-3d353fa0b5d7"><rect height="75" width="114.091796875" y="0" x="0" class="er entityBox"></rect><text style="dominant-baseline: middle; text-anchor: middle; font-size: 12px;" transform="translate(57.0458984375,37.5)" y="0" x="0" id="text-entity-CheckinService-dfb110f2-c6ac-5bc0-aa33-3d353fa0b5d7" class="er entityLabel">CheckinService</text></g><g transform="translate(2535.126953125,370.015625 )" id="entity-Cleanliness-9c148702-8d87-5e03-9071-c4b0f521b50e"><rect height="75" width="100" y="0" x="0" class="er entityBox"></rect><text style="dominant-baseline: middle; text-anchor: middle; font-size: 12px;" transform="translate(50,37.5)" y="0" x="0" id="text-entity-Cleanliness-9c148702-8d87-5e03-9071-c4b0f521b50e" class="er entityLabel">Cleanliness</text></g><rect height="17.015625" width="103.5" y="102.13812255859375" x="1507.4315185546875" class="er relationshipLabelBox"></rect><text style="text-anchor: middle; dominant-baseline: middle; font-size: 12px;" y="110.64593505859375" x="1559.1815185546875" id="rel765" class="er relationshipLabel">hasEvaluationItem</text><rect height="17.015625" width="139.25" y="106.89694213867188" x="1606.7086181640625" class="er relationshipLabelBox"></rect><text style="text-anchor: middle; dominant-baseline: middle; font-size: 12px;" y="115.40475463867188" x="1676.3336181640625" id="rel766" class="er relationshipLabel">hasCustomerSatisfaction</text><rect height="17.015625" width="116.533203125" y="128.41419982910156" x="1749.200439453125" class="er relationshipLabelBox"></rect><text style="text-anchor: middle; dominant-baseline: middle; font-size: 12px;" y="136.92201232910156" x="1807.467041015625" id="rel767" class="er relationshipLabel">hasCustomerGender</text><rect height="17.015625" width="79.125" y="128.4138641357422" x="1949.6240234375" class="er relationshipLabelBox"></rect><text style="text-anchor: middle; dominant-baseline: middle; font-size: 12px;" y="136.9216766357422" x="1989.1865234375" id="rel768" class="er relationshipLabel">hasFlightClass</text><rect height="17.015625" width="93.765625" y="108.61666870117188" x="2055.838623046875" class="er relationshipLabelBox"></rect><text style="text-anchor: middle; dominant-baseline: middle; font-size: 12px;" y="117.12448120117188" x="2102.721435546875" id="rel769" class="er relationshipLabel">hasTypeOfTravel</text><rect height="17.015625" width="101.59375" y="102.14554595947266" x="2153.575927734375" class="er relationshipLabelBox"></rect><text style="text-anchor: middle; dominant-baseline: middle; font-size: 12px;" y="110.65335845947266" x="2204.372802734375" id="rel770" class="er relationshipLabel">hasCustomerType</text><rect height="17.015625" width="47.583984375" y="271.52459716796875" x="634.1657104492188" class="er relationshipLabelBox"></rect><text style="text-anchor: middle; dominant-baseline: middle; font-size: 12px;" y="280.03240966796875" x="657.9577026367188" id="rel771" class="er relationshipLabel">subclass</text><rect height="17.015625" width="47.583984375" y="272.1312561035156" x="738.4957275390625" class="er relationshipLabelBox"></rect><text style="text-anchor: middle; dominant-baseline: middle; font-size: 12px;" y="280.6390686035156" x="762.2877197265625" id="rel772" class="er relationshipLabel">subclass</text><rect height="17.015625" width="47.583984375" y="273.1226501464844" x="847.096923828125" class="er relationshipLabelBox"></rect><text style="text-anchor: middle; dominant-baseline: middle; font-size: 12px;" y="281.6304626464844" x="870.888916015625" id="rel773" class="er relationshipLabel">subclass</text><rect height="17.015625" width="47.583984375" y="274.79412841796875" x="950.5642700195312" class="er relationshipLabelBox"></rect><text style="text-anchor: middle; dominant-baseline: middle; font-size: 12px;" y="283.30194091796875" x="974.3562622070312" id="rel774" class="er relationshipLabel">subclass</text><rect height="17.015625" width="47.583984375" y="278.1480407714844" x="1048.943603515625" class="er relationshipLabelBox"></rect><text style="text-anchor: middle; dominant-baseline: middle; font-size: 12px;" y="286.6558532714844" x="1072.735595703125" id="rel775" class="er relationshipLabel">subclass</text><rect height="17.015625" width="47.583984375" y="288.9296875" x="1149.298583984375" class="er relationshipLabelBox"></rect><text style="text-anchor: middle; dominant-baseline: middle; font-size: 12px;" y="297.4375" x="1173.090576171875" id="rel776" class="er relationshipLabel">subclass</text><rect height="17.015625" width="47.583984375" y="305.5116882324219" x="1298.0689697265625" class="er relationshipLabelBox"></rect><text style="text-anchor: middle; dominant-baseline: middle; font-size: 12px;" y="314.0195007324219" x="1321.8609619140625" id="rel777" class="er relationshipLabel">subclass</text><rect height="17.015625" width="47.583984375" y="289.5394592285156" x="1444.0648193359375" class="er relationshipLabelBox"></rect><text style="text-anchor: middle; dominant-baseline: middle; font-size: 12px;" y="298.0472717285156" x="1467.8568115234375" id="rel778" class="er relationshipLabel">subclass</text><rect height="17.015625" width="47.583984375" y="278.2873229980469" x="1544.5906982421875" class="er relationshipLabelBox"></rect><text style="text-anchor: middle; dominant-baseline: middle; font-size: 12px;" y="286.7951354980469" x="1568.3826904296875" id="rel779" class="er relationshipLabel">subclass</text><rect height="17.015625" width="47.583984375" y="274.72174072265625" x="1648.8685302734375" class="er relationshipLabelBox"></rect><text style="text-anchor: middle; dominant-baseline: middle; font-size: 12px;" y="283.22955322265625" x="1672.6605224609375" id="rel780" class="er relationshipLabel">subclass</text><rect height="17.015625" width="47.583984375" y="273.03759765625" x="1756.4332275390625" class="er relationshipLabelBox"></rect><text style="text-anchor: middle; dominant-baseline: middle; font-size: 12px;" y="281.54541015625" x="1780.2252197265625" id="rel781" class="er relationshipLabel">subclass</text><rect height="17.015625" width="47.583984375" y="272.0820007324219" x="1864.7197265625" class="er relationshipLabelBox"></rect><text style="text-anchor: middle; dominant-baseline: middle; font-size: 12px;" y="280.5898132324219" x="1888.51171875" id="rel782" class="er relationshipLabel">subclass</text><rect height="17.015625" width="47.583984375" y="271.49761962890625" x="1967.646240234375" class="er relationshipLabelBox"></rect><text style="text-anchor: middle; dominant-baseline: middle; font-size: 12px;" y="280.00543212890625" x="1991.438232421875" id="rel783" class="er relationshipLabel">subclass</text></svg>